<svg width="80" height="82" viewBox="0 0 80 82" fill="none" xmlns="http://www.w3.org/2000/svg">
<path d="M63.1452 24.9903C59.6072 19.4944 54.3971 15.2806 48.283 12.9697C42.1689 10.6589 35.4742 10.3734 29.1855 12.1552C22.8969 13.937 17.3469 17.6919 13.3537 22.8665C9.36052 28.0411 7.13528 34.3617 7.00597 40.8966C6.87666 47.4315 8.85012 53.8352 12.6355 59.1637C16.4209 64.4922 21.8179 68.4638 28.0312 70.493C34.2444 72.5221 40.9452 72.5017 47.1459 70.4345C53.3467 68.3674 58.7193 64.3629 62.472 59.0113L56.7058 59H50.9281C50.9281 59 49.0365 61.0596 44.5223 62.5645C40.0081 64.0694 35.1299 64.0843 30.6066 62.607C26.0834 61.1297 22.1543 58.2385 19.3985 54.3593C16.6427 50.4801 15.2061 45.8182 15.3002 41.0607C15.3943 36.3033 17.0143 31.7019 19.9214 27.9347C22.8285 24.1676 26.8688 21.434 31.447 20.1368C36.0252 18.8396 40.899 19.0475 45.3501 20.7298C49.8012 22.4121 51.6793 24.9903 51.6793 24.9903H57.4123H63.1452Z" fill="white"/>
<circle cx="59.5" cy="41.5" r="13.5" fill="#F39200"/>
</svg>
