<svg width="341" height="82" viewBox="0 0 341 82" fill="none" xmlns="http://www.w3.org/2000/svg">
<path d="M72.1452 24.9903C68.6072 19.4944 63.3971 15.2806 57.283 12.9697C51.1689 10.6589 44.4742 10.3734 38.1855 12.1552C31.8969 13.937 26.3469 17.6919 22.3537 22.8665C18.3605 28.0411 16.1353 34.3617 16.006 40.8966C15.8767 47.4315 17.8501 53.8352 21.6355 59.1637C25.4209 64.4922 30.8179 68.4638 37.0312 70.493C43.2444 72.5221 49.9452 72.5017 56.1459 70.4345C62.3467 68.3674 67.7193 64.3629 71.472 59.0113L65.7058 59H59.9281C59.9281 59 58.0365 61.0596 53.5223 62.5645C49.0081 64.0694 44.1299 64.0843 39.6066 62.607C35.0834 61.1297 31.1543 58.2385 28.3985 54.3593C25.6427 50.4801 24.2061 45.8182 24.3002 41.0607C24.3943 36.3033 26.0143 31.7019 28.9214 27.9347C31.8285 24.1676 35.8688 21.434 40.447 20.1368C45.0252 18.8396 49.899 19.0475 54.3501 20.7298C58.8012 22.4121 60.6793 24.9903 60.6793 24.9903H66.4123H72.1452Z" fill="white"/>
<circle cx="68.5" cy="41.5" r="13.5" fill="#F39200"/>
<path d="M108.081 46.7222C108.193 46.7222 108.305 46.7455 108.417 46.7922C108.529 46.8295 108.636 46.8995 108.739 47.0022L110.615 48.9762C109.794 50.0495 108.762 50.8615 107.521 51.4122C106.289 51.9535 104.828 52.2242 103.139 52.2242C101.59 52.2242 100.199 51.9628 98.9669 51.4402C97.7442 50.9082 96.7035 50.1802 95.8449 49.2562C94.9955 48.3228 94.3422 47.2215 93.8849 45.9522C93.4275 44.6735 93.1989 43.2875 93.1989 41.7942C93.1989 40.2728 93.4462 38.8775 93.9409 37.6082C94.4355 36.3295 95.1309 35.2282 96.0269 34.3042C96.9229 33.3802 97.9962 32.6615 99.2469 32.1482C100.498 31.6348 101.874 31.3782 103.377 31.3782C104.142 31.3782 104.861 31.4482 105.533 31.5882C106.214 31.7188 106.849 31.9055 107.437 32.1482C108.025 32.3815 108.566 32.6662 109.061 33.0022C109.556 33.3382 110.394 34.1021 110.777 34.4941L109.181 36.6361C109.078 36.7668 108.957 36.8881 108.817 37.0001C108.677 37.1028 108.481 37.1541 108.229 37.1541C108.061 37.1541 107.902 37.1168 107.753 37.0421C107.603 36.9675 107.045 36.4788 106.877 36.3762C106.709 36.2642 106.522 36.1475 106.317 36.0262C106.121 35.8955 105.883 35.7788 105.603 35.6762C105.332 35.5642 105.01 35.4708 104.637 35.3962C104.273 35.3215 103.844 35.2842 103.349 35.2842C102.565 35.2842 101.846 35.4288 101.193 35.7182C100.549 36.0075 99.9889 36.4322 99.5129 36.9922C99.0462 37.5428 98.6822 38.2242 98.4209 39.0362C98.1689 39.8388 98.0429 40.7582 98.0429 41.7942C98.0429 42.8395 98.1829 43.7682 98.4629 44.5802C98.7522 45.3922 99.1395 46.0782 99.6249 46.6382C100.12 47.1888 100.694 47.6088 101.347 47.8982C102 48.1875 102.7 48.3322 103.447 48.3322C103.876 48.3322 104.268 48.3135 104.623 48.2762C104.978 48.2295 105.309 48.1595 105.617 48.0662C105.925 47.9635 106.214 47.8328 106.485 47.6742C106.756 47.5062 107.031 47.2962 107.311 47.0442C107.423 46.9508 107.544 46.8762 107.675 46.8202C107.806 46.7548 107.941 46.7222 108.081 46.7222Z" fill="white"/>
<path d="M135 41.7942C135 43.2688 134.743 44.6408 134.23 45.9102C133.726 47.1795 133.012 48.2855 132.088 49.2282C131.164 50.1615 130.049 50.8942 128.742 51.4262C127.445 51.9582 126.003 52.2242 124.416 52.2242C122.829 52.2242 121.383 51.9582 120.076 51.4262C118.769 50.8942 117.649 50.1615 116.716 49.2282C115.792 48.2855 115.073 47.1795 114.56 45.9102C114.056 44.6408 113.804 43.2688 113.804 41.7942C113.804 40.3195 114.056 38.9475 114.56 37.6782C115.073 36.4088 115.792 35.3075 116.716 34.3742C117.649 33.4408 118.769 32.7082 120.076 32.1762C121.383 31.6442 122.829 31.3782 124.416 31.3782C126.003 31.3782 127.445 31.6488 128.742 32.1902C130.049 32.7222 131.164 33.4548 132.088 34.3882C133.012 35.3215 133.726 36.4228 134.23 37.6922C134.743 38.9615 135 40.3288 135 41.7942ZM130.156 41.7942C130.156 40.7862 130.025 39.8808 129.764 39.0782C129.503 38.2662 129.125 37.5802 128.63 37.0202C128.145 36.4602 127.547 36.0308 126.838 35.7322C126.129 35.4335 125.321 35.2842 124.416 35.2842C123.501 35.2842 122.685 35.4335 121.966 35.7322C121.257 36.0308 120.655 36.4602 120.16 37.0202C119.675 37.5802 119.301 38.2662 119.04 39.0782C118.779 39.8808 118.648 40.7862 118.648 41.7942C118.648 42.8115 118.779 43.7262 119.04 44.5382C119.301 45.3408 119.675 46.0222 120.16 46.5822C120.655 47.1422 121.257 47.5715 121.966 47.8702C122.685 48.1595 123.501 48.3042 124.416 48.3042C125.321 48.3042 126.129 48.1595 126.838 47.8702C127.547 47.5715 128.145 47.1422 128.63 46.5822C129.125 46.0222 129.503 45.3408 129.764 44.5382C130.025 43.7262 130.156 42.8115 130.156 41.7942Z" fill="white"/>
<path d="M150.77 35.7462C150.63 35.9702 150.481 36.1382 150.322 36.2502C150.173 36.3622 149.977 36.4182 149.734 36.4182C149.52 36.4182 149.286 36.3528 149.034 36.2222C148.792 36.0822 148.512 35.9282 148.194 35.7602C147.886 35.5922 147.532 35.4428 147.13 35.3122C146.729 35.1722 146.272 35.1022 145.758 35.1022C144.872 35.1022 144.209 35.2935 143.77 35.6762C143.341 36.0495 143.126 36.5582 143.126 37.2022C143.126 37.6128 143.257 37.9535 143.518 38.2242C143.78 38.4948 144.12 38.7282 144.54 38.9242C144.97 39.1202 145.455 39.3022 145.996 39.4702C146.547 39.6288 147.107 39.8108 147.676 40.0162C148.246 40.2122 148.801 40.4455 149.342 40.7162C149.893 40.9868 150.378 41.3322 150.798 41.7522C151.228 42.1722 151.573 42.6855 151.834 43.2922C152.096 43.8895 152.226 44.6128 152.226 45.4622C152.226 46.4048 152.063 47.2868 151.736 48.1082C151.41 48.9295 150.934 49.6482 150.308 50.2642C149.692 50.8708 148.927 51.3515 148.012 51.7062C147.107 52.0515 146.076 52.2242 144.918 52.2242C144.284 52.2242 143.635 52.1588 142.972 52.0282C142.319 51.8975 141.684 51.7155 141.068 51.4822C140.452 51.2395 139.874 50.9548 139.332 50.6282C138.791 50.3015 138.32 49.9375 137.918 49.5362L139.318 47.3242C139.43 47.1655 139.575 47.0348 139.752 46.9322C139.939 46.8202 140.14 46.7642 140.354 46.7642C140.634 46.7642 140.914 46.8528 141.194 47.0302C141.484 47.2075 141.806 47.4035 142.16 47.6182C142.524 47.8328 142.94 48.0288 143.406 48.2062C143.873 48.3835 144.424 48.4722 145.058 48.4722C145.917 48.4722 146.584 48.2855 147.06 47.9122C147.536 47.5295 147.774 46.9275 147.774 46.1062C147.774 45.6302 147.644 45.2428 147.382 44.9442C147.121 44.6455 146.776 44.3982 146.346 44.2022C145.926 44.0062 145.446 43.8335 144.904 43.6842C144.363 43.5348 143.808 43.3715 143.238 43.1942C142.669 43.0075 142.114 42.7835 141.572 42.5222C141.031 42.2515 140.546 41.9015 140.116 41.4722C139.696 41.0335 139.356 40.4922 139.094 39.8482C138.833 39.1948 138.702 38.3922 138.702 37.4402C138.702 36.6748 138.856 35.9282 139.164 35.2002C139.472 34.4722 139.925 33.8235 140.522 33.2542C141.12 32.6848 141.852 32.2322 142.72 31.8962C143.588 31.5508 144.582 31.3782 145.702 31.3782C146.328 31.3782 146.934 31.4295 147.522 31.5322C148.12 31.6255 148.684 31.7702 149.216 31.9662C149.748 32.1528 150.243 32.3815 150.7 32.6522C151.167 32.9135 151.582 33.2122 151.946 33.5482L150.77 35.7462Z" fill="white"/>
<path d="M172 35.5002L166 35.5521V52.0002L161 51.9482V43.6252V35.5002H155V31.5502H172V35.5002Z" fill="white"/>
<path d="M184.482 44.2022L182.592 38.6162C182.452 38.2615 182.303 37.8462 182.144 37.3702C181.985 36.8848 181.827 36.3622 181.668 35.8022C181.528 36.3715 181.379 36.8988 181.22 37.3842C181.061 37.8695 180.912 38.2895 180.772 38.6442L178.896 44.2022H184.482ZM192 52.0002H188.332C187.921 52.0002 187.59 51.9068 187.338 51.7202C187.086 51.5242 186.895 51.2768 186.764 50.9782L185.5 48.0001H177.744L176.6 50.9782C176.497 51.2395 176.311 51.4775 176.04 51.6922C175.779 51.8975 175.452 52.0002 175.06 52.0002H171.364L179.26 31.6022H184.104L192 52.0002Z" fill="white"/>
<path d="M220.508 41.7942C220.508 43.2688 220.251 44.6315 219.738 45.8822C219.234 47.1235 218.52 48.2015 217.596 49.1162C216.672 50.0215 215.557 50.7308 214.25 51.2442C212.953 51.7482 211.511 52.0002 209.924 52.0002H202V31.6022H209.924C211.511 31.6022 212.953 31.8588 214.25 32.3722C215.557 32.8855 216.672 33.5948 217.596 34.5002C218.52 35.4055 219.234 36.4835 219.738 37.7342C220.251 38.9755 220.508 40.3288 220.508 41.7942ZM215.664 41.7942C215.664 40.7862 215.533 39.8762 215.272 39.0642C215.011 38.2522 214.633 37.5662 214.138 37.0062C213.653 36.4368 213.055 36.0028 212.346 35.7042C211.637 35.3962 210.829 35.2422 209.924 35.2422H206.76V48.3602H209.924C210.829 48.3602 211.637 48.2108 212.346 47.9122C213.055 47.6042 213.653 47.1702 214.138 46.6102C214.633 46.0408 215.011 45.3502 215.272 44.5382C215.533 43.7262 215.664 42.8115 215.664 41.7942Z" fill="white"/>
<path d="M228.5 36.0001V40.0022H237.5V44.0001H228.5V48.0001L239.5 48.0001V52.0001L223.541 52.0002V32.0001H239.5V36.0001H228.5Z" fill="white"/>
<path d="M258 48.0001V52.0001H243V32.0001H248V48.0001H258Z" fill="white"/>
<path d="M280.22 35.7462C280.08 35.9702 279.93 36.1382 279.772 36.2502C279.622 36.3622 279.426 36.4182 279.184 36.4182C278.969 36.4182 278.736 36.3528 278.484 36.2222C278.241 36.0822 277.961 35.9282 277.644 35.7602C277.336 35.5922 276.981 35.4428 276.58 35.3122C276.178 35.1722 275.721 35.1022 275.208 35.1022C274.321 35.1022 273.658 35.2935 273.22 35.6762C272.79 36.0495 272.576 36.5582 272.576 37.2022C272.576 37.6128 272.706 37.9535 272.968 38.2242C273.229 38.4948 273.57 38.7282 273.99 38.9242C274.419 39.1202 274.904 39.3022 275.446 39.4702C275.996 39.6288 276.556 39.8108 277.126 40.0162C277.695 40.2122 278.25 40.4455 278.792 40.7162C279.342 40.9868 279.828 41.3322 280.248 41.7522C280.677 42.1722 281.022 42.6855 281.284 43.2922C281.545 43.8895 281.676 44.6128 281.676 45.4622C281.676 46.4048 281.512 47.2868 281.186 48.1082C280.859 48.9295 280.383 49.6482 279.758 50.2642C279.142 50.8708 278.376 51.3515 277.462 51.7062C276.556 52.0515 275.525 52.2242 274.368 52.2242C273.733 52.2242 273.084 52.1588 272.422 52.0282C271.768 51.8975 271.134 51.7155 270.518 51.4822C269.902 51.2395 269.323 50.9548 268.782 50.6282C268.24 50.3015 267.769 49.9375 267.368 49.5362L268.768 47.3242C268.88 47.1655 269.024 47.0348 269.202 46.9322C269.388 46.8202 269.589 46.7642 269.804 46.7642C270.084 46.7642 270.364 46.8528 270.644 47.0302C270.933 47.2075 271.255 47.4035 271.61 47.6182C271.974 47.8328 272.389 48.0288 272.856 48.2062C273.322 48.3835 273.873 48.4722 274.508 48.4722C275.366 48.4722 276.034 48.2855 276.51 47.9122C276.986 47.5295 277.224 46.9275 277.224 46.1062C277.224 45.6302 277.093 45.2428 276.832 44.9442C276.57 44.6455 276.225 44.3982 275.796 44.2022C275.376 44.0062 274.895 43.8335 274.354 43.6842C273.812 43.5348 273.257 43.3715 272.688 43.1942C272.118 43.0075 271.563 42.7835 271.022 42.5222C270.48 42.2515 269.995 41.9015 269.566 41.4722C269.146 41.0335 268.805 40.4922 268.544 39.8482C268.282 39.1948 268.152 38.3922 268.152 37.4402C268.152 36.6748 268.306 35.9282 268.614 35.2002C268.922 34.4722 269.374 33.8235 269.972 33.2542C270.569 32.6848 271.302 32.2322 272.17 31.8962C273.038 31.5508 274.032 31.3782 275.152 31.3782C275.777 31.3782 276.384 31.4295 276.972 31.5322C277.569 31.6255 278.134 31.7702 278.666 31.9662C279.198 32.1528 279.692 32.3815 280.15 32.6522C280.616 32.9135 281.032 33.2122 281.396 33.5482L280.22 35.7462Z" fill="white"/>
<path d="M305.156 41.7942C305.156 43.2688 304.899 44.6408 304.386 45.9102C303.882 47.1795 303.168 48.2855 302.244 49.2282C301.32 50.1615 300.205 50.8942 298.898 51.4262C297.601 51.9582 296.159 52.2242 294.572 52.2242C292.985 52.2242 291.539 51.9582 290.232 51.4262C288.925 50.8942 287.805 50.1615 286.872 49.2282C285.948 48.2855 285.229 47.1795 284.716 45.9102C284.212 44.6408 283.96 43.2688 283.96 41.7942C283.96 40.3195 284.212 38.9475 284.716 37.6782C285.229 36.4088 285.948 35.3075 286.872 34.3742C287.805 33.4408 288.925 32.7082 290.232 32.1762C291.539 31.6442 292.985 31.3782 294.572 31.3782C296.159 31.3782 297.601 31.6488 298.898 32.1902C300.205 32.7222 301.32 33.4548 302.244 34.3882C303.168 35.3215 303.882 36.4228 304.386 37.6922C304.899 38.9615 305.156 40.3288 305.156 41.7942ZM300.312 41.7942C300.312 40.7862 300.181 39.8808 299.92 39.0782C299.659 38.2662 299.281 37.5802 298.786 37.0202C298.301 36.4602 297.703 36.0308 296.994 35.7322C296.285 35.4335 295.477 35.2842 294.572 35.2842C293.657 35.2842 292.841 35.4335 292.122 35.7322C291.413 36.0308 290.811 36.4602 290.316 37.0202C289.831 37.5802 289.457 38.2662 289.196 39.0782C288.935 39.8808 288.804 40.7862 288.804 41.7942C288.804 42.8115 288.935 43.7262 289.196 44.5382C289.457 45.3408 289.831 46.0222 290.316 46.5822C290.811 47.1422 291.413 47.5715 292.122 47.8702C292.841 48.1595 293.657 48.3042 294.572 48.3042C295.477 48.3042 296.285 48.1595 296.994 47.8702C297.703 47.5715 298.301 47.1422 298.786 46.5822C299.281 46.0222 299.659 45.3408 299.92 44.5382C300.181 43.7262 300.312 42.8115 300.312 41.7942Z" fill="white"/>
<path d="M323.5 48V52H308.404V31.602H313.5V48H323.5Z" fill="white"/>
<path d="M102.715 25H101.584V21.0566H97.2835V25H96.1585V16.4688H97.2835V20.1367H101.584V16.4688H102.715V25ZM112.716 21.0098C112.716 21.8457 112.575 22.5762 112.294 23.2012C112.013 23.8223 111.614 24.2969 111.099 24.625C110.583 24.9531 109.981 25.1172 109.294 25.1172C108.622 25.1172 108.026 24.9531 107.507 24.625C106.987 24.293 106.583 23.8223 106.294 23.2129C106.009 22.5996 105.862 21.8906 105.854 21.0859V20.4707C105.854 19.6504 105.997 18.9258 106.282 18.2969C106.567 17.668 106.97 17.1875 107.489 16.8555C108.013 16.5195 108.61 16.3516 109.282 16.3516C109.966 16.3516 110.567 16.5176 111.087 16.8496C111.61 17.1777 112.013 17.6562 112.294 18.2852C112.575 18.9102 112.716 19.6387 112.716 20.4707V21.0098ZM111.597 20.459C111.597 19.4473 111.393 18.6719 110.987 18.1328C110.581 17.5898 110.013 17.3184 109.282 17.3184C108.571 17.3184 108.011 17.5898 107.6 18.1328C107.194 18.6719 106.985 19.4219 106.974 20.3828V21.0098C106.974 21.9902 107.179 22.7617 107.589 23.3242C108.003 23.8828 108.571 24.1621 109.294 24.1621C110.02 24.1621 110.583 23.8984 110.981 23.3711C111.38 22.8398 111.585 22.0801 111.597 21.0918V20.459ZM121.574 17.3945H118.831V25H117.712V17.3945H114.976V16.4688H121.574V17.3945ZM129.102 21.0566H125.404V24.0801H129.699V25H124.279V16.4688H129.641V17.3945H125.404V20.1367H129.102V21.0566ZM133.67 24.0801H137.713V25H132.54V16.4688H133.67V24.0801ZM145.259 21.0566H141.562V24.0801H145.857V25H140.437V16.4688H145.798V17.3945H141.562V20.1367H145.259V21.0566ZM151.211 21.1973C150.246 20.9199 149.543 20.5801 149.101 20.1777C148.664 19.7715 148.445 19.2715 148.445 18.6777C148.445 18.0059 148.713 17.4512 149.248 17.0137C149.787 16.5723 150.486 16.3516 151.345 16.3516C151.931 16.3516 152.453 16.4648 152.91 16.6914C153.371 16.918 153.726 17.2305 153.976 17.6289C154.23 18.0273 154.357 18.4629 154.357 18.9355H153.226C153.226 18.4199 153.062 18.0156 152.734 17.7227C152.406 17.4258 151.943 17.2773 151.345 17.2773C150.791 17.2773 150.357 17.4004 150.045 17.6465C149.736 17.8887 149.582 18.2266 149.582 18.6602C149.582 19.0078 149.728 19.3027 150.021 19.5449C150.318 19.7832 150.82 20.002 151.527 20.2012C152.238 20.4004 152.793 20.6211 153.191 20.8633C153.593 21.1016 153.89 21.3809 154.082 21.7012C154.277 22.0215 154.375 22.3984 154.375 22.832C154.375 23.5234 154.105 24.0781 153.566 24.4961C153.027 24.9102 152.306 25.1172 151.404 25.1172C150.818 25.1172 150.271 25.0059 149.763 24.7832C149.256 24.5566 148.863 24.248 148.586 23.8574C148.312 23.4668 148.175 23.0234 148.175 22.5273H149.306C149.306 23.043 149.496 23.4512 149.875 23.752C150.257 24.0488 150.767 24.1973 151.404 24.1973C151.998 24.1973 152.453 24.0762 152.769 23.834C153.086 23.5918 153.244 23.2617 153.244 22.8438C153.244 22.4258 153.097 22.1035 152.804 21.877C152.511 21.6465 151.98 21.4199 151.211 21.1973Z" fill="white"/>
</svg>
